<svg width="46" height="52" viewBox="0 0 46 52" fill="none" xmlns="http://www.w3.org/2000/svg">
<path d="M41.5482 5.46C39.1599 3.38 36.2408 2.08 33.0564 1.3C32.2603 1.04 27.2183 0 23.5032 0H22.4417C18.7266 0 13.4192 1.04 12.6231 1.3C9.7041 2.08 6.78506 3.38 4.39675 5.46C-0.910597 10.14 -0.910597 17.42 1.74308 23.4C4.39675 29.9 7.31579 35.62 11.2963 41.34C14.4807 45.76 17.9305 52 22.9725 52C28.0144 52 31.4642 45.76 34.914 41.34C38.8945 35.88 41.8135 29.9 44.4672 23.4C46.8555 17.42 46.8555 10.14 41.5482 5.46Z" fill="#070707"/>
</svg>
