<svg width="193" height="60" viewBox="0 0 193 60" fill="none" xmlns="http://www.w3.org/2000/svg">
<path d="M13 0.814998C9.38333 0.814998 7.575 4.30333 7.575 11.28V14.045C7.575 17.3583 8.05333 19.96 9.01 21.85C9.96667 23.7167 11.3783 24.65 13.245 24.65C15.8117 24.65 18.1683 22.1533 20.315 17.16H20.945L20.7 24.965H20.315C20.175 24.7083 20.0467 24.5333 19.93 24.44C19.8133 24.3233 19.6383 24.265 19.405 24.265C19.195 24.265 18.355 24.4517 16.885 24.825C15.415 25.175 13.9217 25.35 12.405 25.35C8.60167 25.35 5.65 24.3233 3.55 22.27C1.47333 20.2167 0.435 17.1367 0.435 13.03C0.435 8.9 1.52 5.715 3.69 3.475C5.88333 1.235 8.82333 0.114999 12.51 0.114999C13.9333 0.114999 15.3217 0.301665 16.675 0.674998C18.0517 1.025 18.8567 1.2 19.09 1.2C19.3233 1.2 19.4983 1.15333 19.615 1.06C19.7317 0.943333 19.86 0.756666 20 0.499998H20.385L20.665 8.095H20.035C18.985 5.73833 17.9 3.94167 16.78 2.705C15.6833 1.445 14.4233 0.814998 13 0.814998ZM39.6405 14.185V11.595C39.6405 7.325 39.4305 4.63 39.0105 3.51C38.5438 2.22667 37.8788 1.43333 37.0155 1.13C36.5255 0.943332 35.9305 0.849998 35.2305 0.849998C34.5305 0.849998 33.9238 0.943332 33.4105 1.13C32.9205 1.31667 32.5121 1.64333 32.1855 2.11C31.8588 2.57667 31.5905 3.06667 31.3805 3.58C31.1938 4.09333 31.0421 4.81667 30.9255 5.75C30.7855 7.10333 30.7155 9.09833 30.7155 11.735V14.255C30.7155 17.1017 30.8205 19.1317 31.0305 20.345C31.2638 21.535 31.5438 22.3867 31.8705 22.9C32.5938 24.0433 33.7138 24.615 35.2305 24.615C37.0738 24.615 38.2638 23.845 38.8005 22.305C39.3605 20.7417 39.6405 18.035 39.6405 14.185ZM35.1605 25.35C31.2638 25.35 28.3471 24.3 26.4105 22.2C24.4971 20.0767 23.5405 17.02 23.5405 13.03C23.5405 9.01667 24.5671 5.86667 26.6205 3.58C28.6971 1.27 31.6255 0.114999 35.4055 0.114999C39.1855 0.114999 42.0321 1.21167 43.9455 3.405C45.8821 5.575 46.8505 8.66667 46.8505 12.68C46.8505 16.6933 45.8705 19.8083 43.9105 22.025C41.9738 24.2417 39.0571 25.35 35.1605 25.35ZM68.9371 1.165V25H64.0371L52.0321 2.355V24.335H53.9571V25H49.1621V24.335H51.0871V1.165H49.1621V0.499998H58.8221L67.9921 18.07V1.165H66.0671V0.499998H70.8621V1.165H68.9371ZM93.9944 0.499998L94.3444 9.285H93.6794C92.6527 6.18167 91.7427 4.07 90.9494 2.95C90.156 1.80667 89.0127 1.235 87.5194 1.235H87.0994V24.265H90.0744V25H77.2994V24.265H80.2744V1.235H79.8194C78.326 1.235 77.171 1.83 76.3544 3.02C75.5377 4.18667 74.6394 6.275 73.6594 9.285H72.9944L73.3444 0.499998H93.9944ZM107.055 24.335L104.5 16.775H97.5696L94.8746 24.335H97.4996V25H92.1446V24.335H93.7896L102.715 0.289999H105.585L114.405 24.335H116.015V25H104.57V24.335H107.055ZM101.175 6.835L97.8846 16.005H104.22L101.175 6.835ZM128.493 0.814998C124.876 0.814998 123.068 4.30333 123.068 11.28V14.045C123.068 17.3583 123.546 19.96 124.503 21.85C125.46 23.7167 126.871 24.65 128.738 24.65C131.305 24.65 133.661 22.1533 135.808 17.16H136.438L136.193 24.965H135.808C135.668 24.7083 135.54 24.5333 135.423 24.44C135.306 24.3233 135.131 24.265 134.898 24.265C134.688 24.265 133.848 24.4517 132.378 24.825C130.908 25.175 129.415 25.35 127.898 25.35C124.095 25.35 121.143 24.3233 119.043 22.27C116.966 20.2167 115.928 17.1367 115.928 13.03C115.928 8.9 117.013 5.715 119.183 3.475C121.376 1.235 124.316 0.114999 128.003 0.114999C129.426 0.114999 130.815 0.301665 132.168 0.674998C133.545 1.025 134.35 1.2 134.583 1.2C134.816 1.2 134.991 1.15333 135.108 1.06C135.225 0.943333 135.353 0.756666 135.493 0.499998H135.878L136.158 8.095H135.528C134.478 5.73833 133.393 3.94167 132.273 2.705C131.176 1.445 129.916 0.814998 128.493 0.814998ZM159.859 0.499998L160.209 9.285H159.544C158.517 6.18167 157.607 4.07 156.814 2.95C156.02 1.80667 154.877 1.235 153.384 1.235H152.964V24.265H155.939V25H143.164V24.265H146.139V1.235H145.684C144.19 1.235 143.035 1.83 142.219 3.02C141.402 4.18667 140.504 6.275 139.524 9.285H138.859L139.209 0.499998H159.859ZM177.966 14.185V11.595C177.966 7.325 177.756 4.63 177.336 3.51C176.869 2.22667 176.204 1.43333 175.341 1.13C174.851 0.943332 174.256 0.849998 173.556 0.849998C172.856 0.849998 172.249 0.943332 171.736 1.13C171.246 1.31667 170.837 1.64333 170.511 2.11C170.184 2.57667 169.916 3.06667 169.706 3.58C169.519 4.09333 169.367 4.81667 169.251 5.75C169.111 7.10333 169.041 9.09833 169.041 11.735V14.255C169.041 17.1017 169.146 19.1317 169.356 20.345C169.589 21.535 169.869 22.3867 170.196 22.9C170.919 24.0433 172.039 24.615 173.556 24.615C175.399 24.615 176.589 23.845 177.126 22.305C177.686 20.7417 177.966 18.035 177.966 14.185ZM173.486 25.35C169.589 25.35 166.672 24.3 164.736 22.2C162.822 20.0767 161.866 17.02 161.866 13.03C161.866 9.01667 162.892 5.86667 164.946 3.58C167.022 1.27 169.951 0.114999 173.731 0.114999C177.511 0.114999 180.357 1.21167 182.271 3.405C184.207 5.575 185.176 8.66667 185.176 12.68C185.176 16.6933 184.196 19.8083 182.236 22.025C180.299 24.2417 177.382 25.35 173.486 25.35ZM9 41.725C6.41667 41.725 5.125 44.2167 5.125 49.2V51.175C5.125 53.5417 5.46667 55.4 6.15 56.75C6.83333 58.0833 7.84167 58.75 9.175 58.75C11.0083 58.75 12.6917 56.9667 14.225 53.4H14.675L14.5 58.975H14.225C14.125 58.7917 14.0333 58.6667 13.95 58.6C13.8667 58.5167 13.7417 58.475 13.575 58.475C13.425 58.475 12.825 58.6083 11.775 58.875C10.725 59.125 9.65833 59.25 8.575 59.25C5.85833 59.25 3.75 58.5167 2.25 57.05C0.766667 55.5833 0.025 53.3833 0.025 50.45C0.025 47.5 0.8 45.225 2.35 43.625C3.91667 42.025 6.01667 41.225 8.65 41.225C9.66667 41.225 10.6583 41.3583 11.625 41.625C12.6083 41.875 13.1833 42 13.35 42C13.5167 42 13.6417 41.9667 13.725 41.9C13.8083 41.8167 13.9 41.6833 14 41.5H14.275L14.475 46.925H14.025C13.275 45.2417 12.5 43.9583 11.7 43.075C10.9167 42.175 10.0167 41.725 9 41.725ZM28.0289 51.275V49.425C28.0289 46.375 27.8789 44.45 27.5789 43.65C27.2456 42.7333 26.7706 42.1667 26.1539 41.95C25.8039 41.8167 25.3789 41.75 24.8789 41.75C24.3789 41.75 23.9456 41.8167 23.5789 41.95C23.2289 42.0833 22.9372 42.3167 22.7039 42.65C22.4706 42.9833 22.2789 43.3333 22.1289 43.7C21.9956 44.0667 21.8872 44.5833 21.8039 45.25C21.7039 46.2167 21.6539 47.6417 21.6539 49.525V51.325C21.6539 53.3583 21.7289 54.8083 21.8789 55.675C22.0456 56.525 22.2456 57.1333 22.4789 57.5C22.9956 58.3167 23.7956 58.725 24.8789 58.725C26.1956 58.725 27.0456 58.175 27.4289 57.075C27.8289 55.9583 28.0289 54.025 28.0289 51.275ZM24.8289 59.25C22.0456 59.25 19.9622 58.5 18.5789 57C17.2122 55.4833 16.5289 53.3 16.5289 50.45C16.5289 47.5833 17.2622 45.3333 18.7289 43.7C20.2122 42.05 22.3039 41.225 25.0039 41.225C27.7039 41.225 29.7372 42.0083 31.1039 43.575C32.4872 45.125 33.1789 47.3333 33.1789 50.2C33.1789 53.0667 32.4789 55.2917 31.0789 56.875C29.6956 58.4583 27.6122 59.25 24.8289 59.25ZM48.9551 41.975V59H45.4551L36.8801 42.825V58.525H38.2551V59H34.8301V58.525H36.2051V41.975H34.8301V41.5H41.7301L48.2801 54.05V41.975H46.9051V41.5H50.3301V41.975H48.9551ZM66.8531 41.5L67.1031 47.775H66.6281C65.8948 45.5583 65.2448 44.05 64.6781 43.25C64.1115 42.4333 63.2948 42.025 62.2281 42.025H61.9281V58.475H64.0531V59H54.9281V58.475H57.0531V42.025H56.7281C55.6615 42.025 54.8365 42.45 54.2531 43.3C53.6698 44.1333 53.0281 45.625 52.3281 47.775H51.8531L52.1031 41.5H66.8531ZM76.2186 50.15H74.8936V58.525H76.5186V59H68.3936V58.525H70.0186V41.975H68.3936V41.5H75.9436C78.1102 41.5 79.6436 41.6167 80.5436 41.85C81.4602 42.0667 82.1019 42.3333 82.4686 42.65C83.2686 43.3 83.6686 44.3333 83.6686 45.75C83.6686 47.1667 83.3186 48.1833 82.6186 48.8C81.9186 49.4 80.8519 49.7583 79.4186 49.875V49.95C80.7686 50.1333 81.7102 50.5333 82.2436 51.15C82.7769 51.7667 83.0436 52.8 83.0436 54.25V55.575C83.0436 56.4417 83.0852 57.025 83.1686 57.325C83.2686 57.625 83.4686 57.775 83.7686 57.775C84.0686 57.775 84.3019 57.6417 84.4686 57.375C84.6519 57.0917 84.8186 56.5083 84.9686 55.625L85.3936 55.675C85.2102 57.0917 84.8852 58.0417 84.4186 58.525C83.9686 59.0083 83.0602 59.25 81.6936 59.25C80.3269 59.25 79.3519 58.9333 78.7686 58.3C78.2019 57.65 77.9186 56.4417 77.9186 54.675V52.85C77.9186 51.9167 77.7936 51.2333 77.5436 50.8C77.3102 50.3667 76.8686 50.15 76.2186 50.15ZM74.8936 41.975V49.675H75.6936C76.6436 49.675 77.3436 49.3833 77.7936 48.8C78.2602 48.2167 78.4936 47.2667 78.4936 45.95V45.225C78.4936 43.9083 78.2686 43.0417 77.8186 42.625C77.3852 42.1917 76.6852 41.975 75.7186 41.975H74.8936ZM96.4699 58.525L94.6449 53.125H89.6949L87.7699 58.525H89.6449V59H85.8199V58.525H86.9949L93.3699 41.35H95.4199L101.72 58.525H102.87V59H94.6949V58.525H96.4699ZM92.2699 46.025L89.9199 52.575H94.4449L92.2699 46.025ZM116.438 41.5L116.688 47.775H116.213C115.48 45.5583 114.83 44.05 114.263 43.25C113.696 42.4333 112.88 42.025 111.813 42.025H111.513V58.475H113.638V59H104.513V58.475H106.638V42.025H106.313C105.246 42.025 104.421 42.45 103.838 43.3C103.255 44.1333 102.613 45.625 101.913 47.775H101.438L101.688 41.5H116.438ZM125.767 58.525L123.942 53.125H118.992L117.067 58.525H118.942V59H115.117V58.525H116.292L122.667 41.35H124.717L131.017 58.525H132.167V59H123.992V58.525H125.767ZM121.567 46.025L119.217 52.575H123.742L121.567 46.025ZM141.08 41.725C138.497 41.725 137.205 44.2167 137.205 49.2V51.175C137.205 53.5417 137.547 55.4 138.23 56.75C138.913 58.0833 139.922 58.75 141.255 58.75C143.088 58.75 144.772 56.9667 146.305 53.4H146.755L146.58 58.975H146.305C146.205 58.7917 146.113 58.6667 146.03 58.6C145.947 58.5167 145.822 58.475 145.655 58.475C145.505 58.475 144.905 58.6083 143.855 58.875C142.805 59.125 141.738 59.25 140.655 59.25C137.938 59.25 135.83 58.5167 134.33 57.05C132.847 55.5833 132.105 53.3833 132.105 50.45C132.105 47.5 132.88 45.225 134.43 43.625C135.997 42.025 138.097 41.225 140.73 41.225C141.747 41.225 142.738 41.3583 143.705 41.625C144.688 41.875 145.263 42 145.43 42C145.597 42 145.722 41.9667 145.805 41.9C145.888 41.8167 145.98 41.6833 146.08 41.5H146.355L146.555 46.925H146.105C145.355 45.2417 144.58 43.9583 143.78 43.075C142.997 42.175 142.097 41.725 141.08 41.725ZM148.966 41.5H156.591V41.975H155.216V58.525H156.591V59H148.966V58.525H150.341V41.975H148.966V41.5ZM169.753 51.275V49.425C169.753 46.375 169.603 44.45 169.303 43.65C168.969 42.7333 168.494 42.1667 167.878 41.95C167.528 41.8167 167.103 41.75 166.603 41.75C166.103 41.75 165.669 41.8167 165.303 41.95C164.953 42.0833 164.661 42.3167 164.428 42.65C164.194 42.9833 164.003 43.3333 163.853 43.7C163.719 44.0667 163.611 44.5833 163.528 45.25C163.428 46.2167 163.378 47.6417 163.378 49.525V51.325C163.378 53.3583 163.453 54.8083 163.603 55.675C163.769 56.525 163.969 57.1333 164.203 57.5C164.719 58.3167 165.519 58.725 166.603 58.725C167.919 58.725 168.769 58.175 169.153 57.075C169.553 55.9583 169.753 54.025 169.753 51.275ZM166.553 59.25C163.769 59.25 161.686 58.5 160.303 57C158.936 55.4833 158.253 53.3 158.253 50.45C158.253 47.5833 158.986 45.3333 160.453 43.7C161.936 42.05 164.028 41.225 166.728 41.225C169.428 41.225 171.461 42.0083 172.828 43.575C174.211 45.125 174.903 47.3333 174.903 50.2C174.903 53.0667 174.203 55.2917 172.803 56.875C171.419 58.4583 169.336 59.25 166.553 59.25ZM164.428 40.425L167.303 36.375L168.503 36.475C168.919 36.5083 169.219 36.6333 169.403 36.85C169.603 37.0667 169.703 37.3167 169.703 37.6C169.703 38.2667 169.336 38.75 168.603 39.05L164.628 40.675L164.428 40.425ZM190.679 41.975V59H187.179L178.604 42.825V58.525H179.979V59H176.554V58.525H177.929V41.975H176.554V41.5H183.454L190.004 54.05V41.975H188.629V41.5H192.054V41.975H190.679Z" fill="#FBFAFA"/>
</svg>
