<svg width="66" height="64" viewBox="0 0 66 64" fill="none" xmlns="http://www.w3.org/2000/svg">
<rect width="66" height="64" rx="32" fill="#FBFAFA"/>
<path d="M48.2832 23.5242C47.7858 22.3725 47.0686 21.3288 46.1717 20.4516C45.2741 19.5717 44.2159 18.8726 43.0545 18.392C41.8502 17.8918 40.5585 17.6357 39.2545 17.6387C37.425 17.6387 35.64 18.1397 34.0889 19.086C33.7178 19.3123 33.3652 19.561 33.0313 19.8319C32.6973 19.561 32.3447 19.3123 31.9736 19.086C30.4225 18.1397 28.6375 17.6387 26.808 17.6387C25.4906 17.6387 24.2141 17.891 23.008 18.392C21.8428 18.8744 20.7926 19.5684 19.8908 20.4516C18.9928 21.3278 18.2754 22.3718 17.7793 23.5242C17.2635 24.7229 17 25.9957 17 27.3057C17 28.5414 17.2523 29.8291 17.7533 31.1391C18.1727 32.2338 18.7738 33.3694 19.542 34.516C20.7592 36.3307 22.4328 38.2233 24.5109 40.1418C27.9547 43.3221 31.365 45.519 31.5098 45.608L32.3893 46.1721C32.7789 46.4207 33.2799 46.4207 33.6695 46.1721L34.549 45.608C34.6938 45.5153 38.1004 43.3221 41.5479 40.1418C43.626 38.2233 45.2996 36.3307 46.5168 34.516C47.285 33.3694 47.8898 32.2338 48.3055 31.1391C48.8064 29.8291 49.0588 28.5414 49.0588 27.3057C49.0625 25.9957 48.799 24.7229 48.2832 23.5242Z" fill="#DBDBDB"/>
</svg>
