<svg width="120" height="120" viewBox="0 0 120 120" fill="none" xmlns="http://www.w3.org/2000/svg">
<rect width="120" height="120" rx="15" fill="#FFE350"/>
<path d="M86.9415 28.5721C86.8358 27.9375 86.5952 27.333 86.2361 26.7994C85.8769 26.2657 85.4075 25.8152 84.8595 25.4783C84.3115 25.1414 83.6976 24.9259 83.0593 24.8463C82.4209 24.7668 81.7729 24.825 81.159 25.0171L49.659 34.8586C48.7431 35.1445 47.9425 35.7157 47.3742 36.4889C46.8059 37.262 46.4996 38.1965 46.5 39.1561V75.7501C44.4726 74.2295 41.9911 73.438 39.4577 73.5039C36.9243 73.5697 34.4873 74.489 32.5416 76.1129C30.5959 77.7367 29.2555 79.9699 28.7375 82.4507C28.2195 84.9315 28.5543 87.5145 29.6877 89.7812C30.8211 92.048 32.6866 93.8656 34.982 94.9397C37.2774 96.0138 39.8682 96.2814 42.3347 95.6991C44.8012 95.1169 46.9989 93.7189 48.5716 91.7316C50.1443 89.7444 51 87.2843 51 84.7501V52.6561L82.5 42.8101V55.6036C84.0435 55.7386 85.551 56.0221 87 56.4316V29.3101C87 29.0581 86.9775 28.8151 86.9415 28.5721Z" fill="black"/>
<path d="M100.5 80.25C100.5 85.6206 98.3665 90.7713 94.5689 94.5689C90.7713 98.3665 85.6206 100.5 80.25 100.5C74.8794 100.5 69.7287 98.3665 65.9311 94.5689C62.1335 90.7713 60 85.6206 60 80.25C60 74.8794 62.1335 69.7287 65.9311 65.9311C69.7287 62.1335 74.8794 60 80.25 60C85.6206 60 90.7713 62.1335 94.5689 65.9311C98.3665 69.7287 100.5 74.8794 100.5 80.25ZM90.3165 78.2925L76.8435 70.8675C76.5011 70.6781 76.1153 70.5813 75.7241 70.5866C75.3329 70.5919 74.9498 70.6991 74.6127 70.8977C74.2755 71.0962 73.996 71.3792 73.8017 71.7188C73.6073 72.0584 73.5049 72.4428 73.5045 72.834V87.684C73.5041 88.0756 73.606 88.4606 73.8 88.8008C73.994 89.141 74.2735 89.4246 74.6107 89.6237C74.948 89.8228 75.3314 89.9304 75.723 89.9359C76.1146 89.9414 76.5008 89.8445 76.8435 89.655L90.3165 82.23C90.6682 82.0354 90.9613 81.7502 91.1654 81.404C91.3696 81.0577 91.4772 80.6632 91.4772 80.2612C91.4772 79.8593 91.3696 79.4648 91.1654 79.1185C90.9613 78.7723 90.6682 78.4871 90.3165 78.2925Z" fill="black"/>
</svg>
