<svg width="228" height="277" viewBox="0 0 228 277" fill="none" xmlns="http://www.w3.org/2000/svg">
<path d="M0.243046 219.655C7.00466 207.934 13.7663 196.214 20.6094 184.352C21.0821 183.323 21.2503 182.179 21.0941 181.056L10.8143 95.2312C10.2006 91.9383 10.2542 88.5581 10.9716 85.2905C11.6891 82.0228 13.0559 78.934 14.9914 76.2065C16.927 73.4791 19.392 71.1683 22.2406 69.4108C25.0892 67.6533 28.2637 66.4847 31.5766 65.974C34.8895 65.4634 38.2735 65.6211 41.5286 66.4377C44.7837 67.2544 47.844 68.7135 50.5285 70.7289C53.213 72.7442 55.4673 75.2748 57.1582 78.1712C58.8491 81.0676 59.9422 84.271 60.3731 87.5921C60.518 88.769 60.8868 89.9081 61.4597 90.9481L62.9261 88.4064C77.1825 63.6947 91.439 38.983 105.736 14.2007C107.623 10.36 110.513 7.10124 114.104 4.76753C117.694 2.43381 121.852 1.1114 126.139 0.939465C130.47 0.563889 134.823 1.43263 138.684 3.44328C142.545 5.45393 145.753 8.52261 147.93 12.2876C150.382 16.1286 151.679 20.5883 151.668 25.136C151.657 29.6837 150.337 34.1283 147.866 37.9411L126.603 74.7968C131.105 75.5303 135.318 77.5014 138.767 80.4886C142.216 83.4759 144.766 87.3611 146.13 91.7079C150.604 90.71 155.274 90.986 159.608 92.5047C163.942 94.0234 167.765 96.7238 170.645 100.299L172.111 97.7571C175.736 91.4733 179.362 85.1894 182.987 78.9056C186.3 73.9093 191.396 70.3626 197.243 68.9832C203.089 67.6039 209.25 68.4951 214.477 71.4764C219.734 74.3148 223.752 79.001 225.747 84.6225C227.742 90.2439 227.572 96.3984 225.27 101.888C224.252 103.653 223.275 105.348 222.256 107.113C204.008 138.744 185.597 170.657 167.552 201.935C159.192 217.386 145.593 229.352 129.183 235.697C125.75 236.847 122.588 238.679 119.886 241.083C117.185 243.486 115 246.412 113.463 249.683C108.826 258.866 103.198 267.476 98.0658 276.372L0.243046 219.655ZM114.633 146.468L111.681 146.835C108.425 147.252 105.116 146.967 101.975 145.999C98.8345 145.032 95.936 143.404 93.4752 141.225C89.1289 137.437 86.2527 132.246 85.351 126.564C84.4493 120.882 85.5797 115.07 88.5441 110.149C103.737 83.8137 118.931 57.4781 134.083 31.2131C134.653 30.2246 135.183 29.3067 135.712 28.3889C136.329 27.3155 136.713 26.1247 136.841 24.8927C136.969 23.6608 136.838 22.415 136.455 21.2351C136.073 20.0552 135.448 18.9672 134.62 18.041C133.793 17.1147 132.781 16.3707 131.65 15.8565C130.519 15.3423 129.294 15.0693 128.052 15.055C126.811 15.0407 125.582 15.2853 124.442 15.7733C123.303 16.2614 122.279 16.982 121.436 17.8889C120.594 18.7959 119.951 19.8692 119.549 21.04L53.1546 136.126L52.6529 134.048L48.6616 108.22C47.6736 101.91 46.5439 95.5175 45.5452 89.3893C45.2004 87.3906 44.2221 85.5532 42.7544 84.1474C41.2867 82.7416 39.4072 81.8418 37.3925 81.5805C35.4152 81.1893 33.3656 81.4719 31.5726 82.3828C29.7796 83.2937 28.3471 84.7801 27.5045 86.6038C26.5414 88.7975 26.1617 91.2037 26.4022 93.5903C29.7742 123.767 33.2172 153.984 36.7309 184.243C37.0285 186.145 36.643 188.089 35.6425 189.731C31.2841 197.286 26.8849 204.911 22.5266 212.466C22.0785 213.243 21.6305 214.019 21.2231 214.725L93.2288 256.266L101.905 241.227C103.84 236.794 106.412 232.667 109.54 228.976C113.476 226.396 117.79 224.44 122.33 223.18L123.72 222.57C136.77 217.333 147.597 207.759 154.378 195.464C172.911 163.338 191.444 131.213 209.978 99.0879L211.362 96.6873C212.224 94.5858 212.246 92.2321 211.423 90.1097C210.6 87.9873 208.995 86.2574 206.938 85.2753C204.88 84.2932 202.527 84.1336 200.361 84.8291C198.195 85.5247 196.381 87.0226 195.291 89.0152C183.071 110.197 171.096 130.955 158.998 151.924C156.593 155.95 153.077 159.196 148.868 161.277C144.66 163.357 139.937 164.185 135.262 163.66C130.588 163.135 126.158 161.28 122.502 158.316C118.846 155.352 116.118 151.404 114.642 146.943L114.633 146.468ZM136.927 122.723C134.727 126.536 132.528 130.348 130.288 134.232C129.11 136.273 128.795 138.7 129.411 140.979C130.027 143.258 131.524 145.202 133.573 146.384C135.622 147.566 138.054 147.889 140.336 147.281C142.617 146.674 144.56 145.186 145.738 143.145C150.178 135.449 154.658 127.682 159.098 119.986C159.921 118.516 160.439 116.895 160.621 115.219C160.723 113.334 160.211 111.464 159.16 109.891C158.109 108.318 156.576 107.125 154.792 106.492C152.801 105.768 150.618 105.774 148.636 106.51C146.653 107.246 145.001 108.664 143.974 110.508C141.703 114.28 139.289 118.628 136.927 122.723ZM108.578 106.368C106.419 110.11 104.22 113.923 102.061 117.665C101.307 118.856 100.772 120.172 100.48 121.552C100.082 123.583 100.42 125.692 101.435 127.502C102.451 129.311 104.076 130.704 106.022 131.431C108.031 132.183 110.242 132.188 112.249 131.445C114.257 130.702 115.926 129.26 116.951 127.385C121.513 119.477 126.035 111.64 130.597 103.732C131.28 102.703 131.746 101.546 131.968 100.331C132.19 99.1158 132.162 97.8674 131.886 96.6616C131.61 95.4557 131.093 94.3174 130.364 93.3155C129.636 92.3136 128.712 91.4689 127.648 90.8326C126.59 90.2451 125.424 89.8764 124.221 89.7487C123.017 89.6209 121.801 89.7368 120.646 90.0892C119.49 90.4416 118.418 91.0232 117.494 91.7995C116.57 92.5758 115.814 93.5307 115.269 94.607C112.887 98.4085 110.718 102.333 108.477 106.216L108.578 106.368Z" fill="#FFEE96"/>
</svg>
