<svg width="60" height="60" viewBox="0 0 60 60" fill="none" xmlns="http://www.w3.org/2000/svg">
<path d="M28.4552 32.6431C31.467 32.9562 34.2935 32.1258 36.4519 30.2943C38.6436 28.4347 39.6297 26.3916 39.6297 23.709C39.6297 20.9928 38.6338 18.9587 36.3765 17.0626C35.379 16.2243 34.0673 15.5363 32.6377 15.1009C31.4686 14.7444 28.8775 14.6556 27.4877 14.9244C25.9401 15.2232 24.0991 16.0906 22.9338 17.069C20.7541 18.8995 19.7101 21.051 19.7101 23.709C19.7101 25.3023 19.968 26.3004 20.7563 27.7556C21.3299 28.8144 21.5451 29.0782 22.617 30.0403C23.55 30.8781 24.0619 31.2362 24.8426 31.5981C26.1291 32.1938 27.2496 32.5173 28.4552 32.6431ZM29.0212 54.4464C28.8092 54.33 27.8592 53.4966 26.9098 52.5942C19.6369 45.6805 14.5591 38.9556 11.803 32.5844C10.9738 30.6676 10.6668 29.6996 10.3417 27.9835C9.34581 22.7218 10.5384 17.5814 13.7681 13.2092C14.9972 11.5449 17.4916 9.28885 19.272 8.2296C25.768 4.36592 33.5959 4.38219 40.1219 8.27251C41.8154 9.28244 44.3344 11.5775 45.5335 13.2038C47.7285 16.1818 48.8987 19.2383 49.2538 22.9259C49.5439 25.935 49.0446 28.8731 47.6903 32.1445C45.0539 38.5069 40.2618 44.8574 32.0083 52.927C30.1657 54.7285 29.839 54.8951 29.0212 54.4464Z" fill="#070707"/>
</svg>
