<svg width="596" height="79" viewBox="0 0 596 79" fill="none" xmlns="http://www.w3.org/2000/svg">
<g clip-path="url(#clip0_96_125)">
<path d="M16.4464 77.4175C16.4464 73.6097 16.4464 69.8019 16.4464 65.9482C16.417 65.6308 16.2973 65.3285 16.1014 65.0766L1.54113 45.6018C0.929085 44.8854 0.467267 44.0539 0.182926 43.1565C-0.101416 42.2591 -0.202517 41.314 -0.114357 40.3769C-0.0261966 39.4399 0.249432 38.53 0.696204 37.701C1.14298 36.872 1.75183 36.1407 2.48681 35.5504C3.2218 34.96 4.068 34.5226 4.97539 34.2639C5.88279 34.0052 6.83299 33.9305 7.76981 34.0443C8.70664 34.158 9.61109 34.4579 10.4297 34.9261C11.2484 35.3943 11.9646 36.0215 12.5361 36.7704C12.7367 37.0369 12.9866 37.2627 13.2722 37.4357V36.6099C13.2722 28.5814 13.2722 20.5529 13.2722 12.5015C13.192 11.3 13.4381 10.0992 13.9846 9.02539C14.531 7.95162 15.3576 7.04463 16.3774 6.39985C17.3794 5.69918 18.5614 5.29883 19.7841 5.24599C21.0067 5.19316 22.219 5.49003 23.278 6.10164C24.4148 6.6931 25.3572 7.5977 25.9934 8.70784C26.6295 9.81798 26.9325 11.087 26.8664 12.3639V24.3378C28.0658 23.8834 29.3684 23.7716 30.628 24.0147C31.8875 24.2578 33.0542 24.8463 33.997 25.7141C34.9465 24.8415 36.1224 24.2522 37.391 24.0129C38.6597 23.7737 39.9702 23.8942 41.1736 24.3607V23.5349C41.1736 21.4934 41.1736 19.4519 41.1736 17.4103C41.2786 15.7265 42.0213 14.1453 43.2512 12.9869C44.4811 11.8285 46.1065 11.1794 47.7982 11.171C49.4772 11.1236 51.1137 11.701 52.3893 12.7907C53.6649 13.8804 54.4881 15.4045 54.6988 17.0662C54.6988 17.6397 54.6988 18.1902 54.6988 18.7637C54.6988 29.0402 54.6988 39.4084 54.6988 49.5701C54.8337 54.5122 53.2032 59.3413 50.0984 63.1956C49.4241 63.9588 48.9115 64.85 48.5913 65.8158C48.2711 66.7816 48.15 67.8019 48.2353 68.8155C48.3963 71.7058 48.2353 74.596 48.2353 77.4863L16.4464 77.4175ZM34.02 43.4914L33.353 43.9961C32.6187 44.5556 31.7727 44.9515 30.872 45.1573C29.9712 45.3631 29.0367 45.3738 28.1315 45.1889C26.5409 44.8766 25.1113 44.0158 24.0934 42.7575C23.0756 41.4992 22.5345 39.9237 22.565 38.3073C22.565 29.7513 22.565 21.1952 22.565 12.6621C22.565 12.3409 22.565 12.0427 22.565 11.7445C22.5643 11.3962 22.4906 11.0518 22.3487 10.7336C22.2068 10.4153 21.9997 10.1301 21.7408 9.89628C21.4819 9.66245 21.1769 9.48513 20.8453 9.37572C20.5137 9.26631 20.1628 9.22721 19.8152 9.26092C19.4675 9.29462 19.1308 9.4004 18.8265 9.57147C18.5222 9.74253 18.2571 9.97509 18.0483 10.2543C17.8394 10.5335 17.6913 10.8531 17.6135 11.1927C17.5357 11.5322 17.5299 11.8843 17.5965 12.2262V49.616L17.1825 49.1802L12.5821 43.4455C11.455 42.0463 10.2819 40.647 9.17782 39.2937C8.81307 38.855 8.31669 38.5447 7.76181 38.4084C7.20693 38.2721 6.62284 38.3171 6.09552 38.5367C5.55906 38.7194 5.09967 39.0765 4.79102 39.5507C4.48237 40.0249 4.34235 40.5887 4.39339 41.1517C4.46702 41.8218 4.7126 42.4618 5.10645 43.0097C10.1669 49.8913 15.2504 56.7728 20.3568 63.6544C20.6966 64.0763 20.8758 64.6044 20.8629 65.1454C20.8629 67.5998 20.8629 70.0772 20.8629 72.5316C20.8629 72.7839 20.8629 73.0362 20.8629 73.2656H44.2329V68.3797C44.0813 67.0268 44.1278 65.6591 44.3709 64.3196C44.9669 63.1372 45.7428 62.0539 46.6711 61.1082L46.9241 60.7641C49.366 57.6523 50.6577 53.7961 50.5815 49.8454C50.5815 39.4084 50.5815 28.9713 50.5815 18.5343V17.7544C50.4961 17.121 50.1707 16.5442 49.6721 16.1426C49.1736 15.741 48.5397 15.545 47.9008 15.5949C47.2618 15.6448 46.6664 15.9368 46.2366 16.411C45.8069 16.8851 45.5755 17.5054 45.5901 18.1444C45.5901 25.0259 45.5901 31.7698 45.5901 38.5826C45.5699 39.902 45.1697 41.1879 44.4372 42.2869C43.7047 43.3858 42.6708 44.2516 41.4588 44.7811C40.2467 45.3105 38.9075 45.4812 37.6009 45.2729C36.2942 45.0646 35.0752 44.486 34.089 43.6061L34.02 43.4914ZM36.1132 34.5683C36.1132 35.807 36.1132 37.0457 36.1132 38.3073C36.1132 38.9705 36.3774 39.6064 36.8476 40.0753C37.3177 40.5442 37.9554 40.8076 38.6204 40.8076C39.2854 40.8076 39.9231 40.5442 40.3933 40.0753C40.8635 39.6064 41.1277 38.9705 41.1277 38.3073C41.1277 35.807 41.1277 33.2838 41.1277 30.7835C41.1216 30.3093 41.0199 29.8413 40.8286 29.4072C40.5888 28.9333 40.2013 28.5497 39.7244 28.314C39.2475 28.0782 38.7068 28.003 38.1834 28.0997C37.5967 28.2032 37.0661 28.5116 36.6868 28.9698C36.3074 29.428 36.1041 30.0059 36.1132 30.6C36.0902 31.8387 36.1132 33.2379 36.1132 34.5683ZM26.9124 34.5683C26.9124 35.7841 26.9124 37.0228 26.9124 38.2385C26.8961 38.6349 26.9507 39.031 27.0734 39.4084C27.2618 39.9595 27.6405 40.4259 28.1419 40.7243C28.6434 41.0226 29.2348 41.1334 29.8106 41.037C30.4055 40.9378 30.9446 40.6281 31.3291 40.1647C31.7136 39.7012 31.9176 39.1151 31.9038 38.5138C31.9038 35.9447 31.9038 33.3985 31.9038 30.8294C31.9256 30.4825 31.8767 30.1349 31.7599 29.8075C31.6431 29.4801 31.461 29.1798 31.2244 28.9246C30.9879 28.6694 30.7019 28.4647 30.3838 28.3229C30.0657 28.1812 29.722 28.1052 29.3736 28.0997C29.0333 28.1053 28.6976 28.1794 28.3866 28.3175C28.0757 28.4555 27.7959 28.6548 27.564 28.9032C27.332 29.1516 27.1527 29.4441 27.0368 29.7633C26.9209 30.0824 26.8708 30.4216 26.8894 30.7605C26.8434 32.0222 26.8664 33.2838 26.8664 34.5454L26.9124 34.5683Z" fill="white"/>
<path d="M100.266 40.8766H94.7914V75.422H101.508V77.3717H67.879V75.422H74.5956V7.134H67.879V5.16129H99.1388C105.534 4.95253 111.934 5.42158 118.23 6.56054C121.081 7.08787 123.782 8.23094 126.143 9.90956C129.455 12.5857 131.112 16.8523 131.112 22.7093C131.112 28.5586 129.663 32.7563 126.764 35.2566C122.946 38.1462 118.307 39.7526 113.515 39.8443V40.1425C119.097 40.8918 123 42.5434 125.223 45.0972C127.447 47.6511 128.551 51.9176 128.535 57.8969V63.3792C128.422 65.8023 128.615 68.2299 129.11 70.6048C129.213 71.135 129.5 71.612 129.921 71.9519C130.342 72.2917 130.869 72.4727 131.411 72.4629C132.011 72.4662 132.602 72.3109 133.124 72.0128C133.645 71.7147 134.078 71.2843 134.378 70.7654C135.429 68.4955 136.105 66.0709 136.379 63.5857L138.15 63.7921C137.384 69.6491 136.057 73.5716 134.171 75.5596C132.285 77.5476 128.505 78.5416 122.831 78.5416C117.172 78.5416 113.147 77.2341 110.778 74.5732C108.409 71.9124 107.19 66.9576 107.19 59.6632V52.0247C107.384 49.1242 106.871 46.2201 105.694 43.5604C105.128 42.6553 104.32 41.9251 103.362 41.4512C102.403 40.9773 101.331 40.7784 100.266 40.8766ZM94.7914 7.134V38.9268H98.1037C99.7441 39.0538 101.391 38.7915 102.911 38.1616C104.43 37.5317 105.778 36.5519 106.844 35.3025C108.746 32.9016 109.697 28.9791 109.697 23.535V20.553C109.697 15.1166 108.777 11.5152 106.959 9.77192C104.488 7.79934 101.349 6.85434 98.1957 7.134H94.7914Z" fill="white"/>
<path d="M147.88 71.8435C143.464 67.4393 141.256 61.1312 141.256 52.9192C141.256 44.7072 143.625 38.3762 148.363 33.9261C153.086 29.476 159.726 27.251 168.283 27.251C176.84 27.251 183.211 29.3154 187.421 33.3985C191.63 37.4815 193.746 43.7438 193.746 52.1393C193.746 69.6796 184.982 78.4498 167.455 78.4498C158.837 78.4498 152.312 76.2477 147.88 71.8435ZM173.872 57.094V48.3085C174.018 43.4214 173.656 38.5324 172.791 33.7197C172.055 30.6612 170.376 29.132 167.754 29.132C166.409 29.0677 165.094 29.5379 164.097 30.4394C162.992 31.6164 162.285 33.1081 162.072 34.706C161.33 39.3856 161.014 44.1226 161.129 48.8591V56.9105C160.93 61.4257 161.161 65.9496 161.819 70.4213C162.167 71.6985 162.629 72.9422 163.199 74.1373C163.597 74.9582 164.239 75.6366 165.038 76.08C165.836 76.5234 166.753 76.7101 167.662 76.6147C168.951 76.625 170.199 76.1638 171.169 75.3184C172.14 74.4729 172.766 73.3019 172.929 72.027C173.771 67.0887 174.087 62.0756 173.872 57.071V57.094Z" fill="white"/>
<path d="M225.627 29.1089C224.15 29.1286 222.718 29.6206 221.542 30.5125C220.366 31.4044 219.508 32.6492 219.094 34.0636C217.514 39.3881 216.853 44.942 217.139 50.4876V55.8552C217.139 62.6756 217.906 67.5615 219.439 70.5129C220.24 71.9934 221.463 73.2041 222.953 73.9921C224.443 74.78 226.134 75.1099 227.812 74.94C229.64 75.0178 231.462 74.6875 233.145 73.9732C234.829 73.2588 236.331 72.1785 237.542 70.8111C239.889 68.1502 241.478 64.9104 242.142 61.4292L244.006 61.6357C243.23 66.6386 240.655 71.1887 236.76 74.4354C232.39 77.3413 227.19 78.7503 221.947 78.4497C213.942 78.4497 207.8 76.3163 203.545 72.0039C199.29 67.6915 197.127 61.4063 197.127 53.1255C197.127 44.8447 199.566 38.4448 204.442 33.9718C209.319 29.4988 216.081 27.2509 224.776 27.2509C229.73 26.9284 234.659 28.1813 238.853 30.8293C240.342 31.7974 241.565 33.1202 242.413 34.6781C243.26 36.2361 243.705 37.98 243.707 39.7524C243.963 42.5634 243.141 45.367 241.406 47.5973C240.584 48.4608 239.586 49.1388 238.479 49.5859C237.372 50.033 236.182 50.2387 234.989 50.1894C232.601 50.304 230.255 49.5271 228.41 48.0102C227.549 47.1919 226.88 46.1938 226.45 45.0875C226.021 43.9811 225.842 42.7937 225.926 41.6104C225.931 40.3534 226.109 39.1031 226.455 37.8943H229.859C230.31 36.7049 230.558 35.4491 230.595 34.1783C230.712 33.4967 230.664 32.7974 230.458 32.1375C230.251 31.4776 229.891 30.8758 229.406 30.3814C228.922 29.887 228.327 29.514 227.67 29.2928C227.013 29.0716 226.313 29.0086 225.627 29.1089Z" fill="white"/>
<path d="M279.452 77.4175V75.5595H284.213L272.505 51.6116L270.55 52.1393V75.5595H275.311V77.4175H245.593V75.5595H251.297V1.85801H245.179V0H270.481V50.1895L272.137 49.5701L295.415 30.2559H285.685V28.3979H306.088V30.2559H298.842L286.513 40.6929L304.455 75.5595H308.181V77.4175H279.452Z" fill="white"/>
<path d="M332.54 53.1716H335.554V45.2119C335.758 40.8026 335.394 36.3854 334.473 32.0681C334.275 31.1052 333.746 30.2414 332.977 29.6258C332.209 29.0103 331.249 28.6815 330.263 28.6962C329.071 28.6877 327.903 29.0308 326.905 29.6825C326.443 29.9616 326.063 30.356 325.8 30.8266C325.538 31.2973 325.404 31.828 325.41 32.3663C325.417 33.5478 325.627 34.7194 326.031 35.8301H328.607C329.196 37.5017 329.477 39.2658 329.435 41.0371C329.432 42.0532 329.199 43.0555 328.753 43.9691C328.307 44.8827 327.659 45.6839 326.859 46.3129C325.037 47.8507 322.712 48.6671 320.326 48.6068C314.392 48.6068 311.425 45.7548 311.425 40.0507C311.425 31.5941 318.64 27.3581 333.07 27.3428C341.281 27.3428 346.871 28.742 350.091 31.5405C353.311 34.339 354.807 39.4314 354.807 46.8635V67.8063C354.807 71.3847 355.796 73.174 357.797 73.174C359.798 73.174 361.523 69.6414 361.937 62.5534H363.501C363.225 68.6704 362.083 72.8375 360.074 75.0549C358.073 77.3488 354.806 78.4498 350.252 78.4498C341.971 78.4498 337.21 75.9036 335.968 70.8113C335.283 73.1249 333.862 75.1536 331.919 76.5918C329.542 77.9803 326.802 78.6274 324.053 78.4498C313.84 78.4498 308.733 74.2903 308.733 65.9713C308.551 63.8946 309.017 61.8126 310.067 60.0101C311.117 58.2076 312.7 56.7726 314.599 55.9013C318.494 54.0815 324.474 53.1716 332.54 53.1716ZM328.975 72.784C329.11 73.2496 329.4 73.6555 329.797 73.9349C330.195 74.2142 330.675 74.3504 331.16 74.3209C332.218 74.3209 333.231 73.4492 334.151 71.7059C335.197 69.4214 335.678 66.9199 335.554 64.4114V54.7773H334.818C330.539 54.7773 328.4 57.9045 328.4 64.1591V65.8107C328.277 68.1503 328.47 70.4959 328.975 72.784Z" fill="white"/>
<path d="M364.536 28.2831H389.563V37.7796C391.847 30.7604 396.87 27.2509 404.629 27.2509C412.388 27.2509 417.096 30.9669 418.752 38.399C419.576 35.0548 421.553 32.106 424.336 30.0681C427.12 28.0302 430.533 27.033 433.98 27.2509C444.131 27.2509 449.199 33.0008 449.184 44.5006V75.5594H454.98V77.4174H426.228V75.5594H429.839V42.0233C429.839 36.7933 429.402 33.7195 428.505 32.8479C428.284 32.6407 428.023 32.4794 427.739 32.3731C427.455 32.2668 427.152 32.2177 426.849 32.2285C424.848 32.2285 423.077 33.5819 421.558 36.2657C419.926 39.4148 419.133 42.9303 419.258 46.4733V75.5823H422.985V77.4403H396.463V75.5823H400.075V42.0233C400.075 36.7933 399.637 33.7195 398.74 32.8479C398.519 32.6407 398.259 32.4794 397.974 32.3731C397.69 32.2668 397.388 32.2177 397.084 32.2285C395.152 32.2285 393.404 33.6966 391.84 36.6327C390.226 39.8791 389.436 43.4708 389.54 47.0927V75.5823H393.266V77.4403H364.536V75.5823H370.218V30.1641H364.536V28.2831Z" fill="white"/>
<path d="M481.387 0V36.1282C482.412 33.4278 484.264 31.1176 486.679 29.5244C489.093 27.9313 491.95 27.1359 494.843 27.251C507.755 27.251 514.211 35.8223 514.211 52.9651C514.211 61.7046 512.416 68.1274 508.874 72.2563C505.332 76.3853 499.995 78.4498 492.888 78.4498C490.046 78.613 487.21 78.0443 484.653 76.7982C483.668 76.1986 482.815 75.4054 482.147 74.4669C481.478 73.5284 481.009 72.4641 480.766 71.3388L480.053 77.4175H456.453V75.5595H462.134V1.85801H456.453V0H481.387ZM493.187 35.3712C492.497 32.9168 491.163 31.701 489.161 31.701C488.018 31.8025 486.921 32.1983 485.978 32.8497C485.034 33.5011 484.277 34.3858 483.779 35.4171C482.061 38.5347 481.263 42.0738 481.479 45.6247V64.8243C481.393 67.457 482.021 70.064 483.296 72.371C483.784 73.3131 484.528 74.099 485.444 74.6386C486.359 75.1782 487.408 75.4496 488.471 75.4219C490.772 75.4219 492.244 73.9079 493.072 70.8341C494.099 65.6009 494.516 60.2666 494.314 54.9378V49.5701C494.475 44.8099 494.097 40.0468 493.187 35.3712Z" fill="white"/>
<path d="M542.158 53.1715H545.148V45.2119C545.352 40.8026 544.989 36.3854 544.067 32.0681C543.874 31.1071 543.35 30.2438 542.585 29.6279C541.82 29.012 540.864 28.6824 539.881 28.6961C538.682 28.6912 537.507 29.0339 536.5 29.6825C536.038 29.9616 535.657 30.356 535.395 30.8266C535.133 31.2973 534.998 31.8279 535.004 32.3663C535.011 33.5478 535.221 34.7194 535.625 35.83H538.225C538.819 37.493 539.107 39.2491 539.076 41.0141C539.06 42.0304 538.819 43.0305 538.369 43.9427C537.92 44.8549 537.274 45.6566 536.477 46.29C534.664 47.8281 532.346 48.6449 529.967 48.5838C524.032 48.5838 521.065 45.7318 521.065 40.0278C521.065 31.5711 528.272 27.3351 542.687 27.3198C550.891 27.3198 556.565 28.7191 559.709 31.5176C562.852 34.3161 564.424 39.4237 564.424 46.8405V67.7834C564.424 71.3618 565.436 73.151 567.437 73.151C569.438 73.151 571.164 69.6185 571.578 62.5305H573.119C572.843 68.6474 571.708 72.8146 569.714 75.0319C567.713 77.3258 564.424 78.4268 559.87 78.4268C551.589 78.4268 546.827 75.8807 545.585 70.7883C544.908 73.0995 543.495 75.1283 541.56 76.5688C539.182 77.9573 536.443 78.6044 533.693 78.4268C523.48 78.4268 518.374 74.2673 518.374 65.9483C518.19 63.8742 518.653 61.7941 519.698 59.9919C520.744 58.1897 522.322 56.7531 524.216 55.8783C528.081 54.0891 534.084 53.1715 542.158 53.1715ZM538.57 72.784C538.708 73.2705 539.016 73.6921 539.437 73.9736C539.858 74.2551 540.366 74.3782 540.87 74.3209C541.928 74.3209 542.94 73.4492 543.86 71.7059C544.907 69.4214 545.388 66.9198 545.263 64.4114V54.7772H544.55C540.272 54.7772 538.133 57.9045 538.133 64.1591V65.8107C537.968 68.1441 538.115 70.4891 538.57 72.784Z" fill="white"/>
</g>
<circle cx="589.463" cy="71.9122" r="6.53748" fill="white"/>
<defs>
<clipPath id="clip0_96_125">
<rect width="573.119" height="78.4497" fill="white"/>
</clipPath>
</defs>
</svg>
