<svg width="1362" height="303" viewBox="0 0 1362 303" fill="none" xmlns="http://www.w3.org/2000/svg">
<g clip-path="url(#clip0_1106_415)">
<path d="M37.5841 176.921C37.5841 168.219 37.5841 159.517 37.5841 150.711C37.5167 149.986 37.2432 149.295 36.7956 148.719L3.52194 104.214C2.12328 102.577 1.06792 100.677 0.418133 98.6264C-0.231654 96.5756 -0.462695 94.4158 -0.261228 92.2744C-0.0597608 90.1331 0.570116 88.0538 1.59109 86.1593C2.61207 84.2649 4.00344 82.5937 5.68306 81.2446C7.36268 79.8955 9.29643 78.8959 11.37 78.3047C13.4436 77.7136 15.6151 77.5429 17.756 77.8028C19.8968 78.0627 21.9637 78.748 23.8345 79.818C25.7053 80.888 27.3421 82.3212 28.648 84.0327C29.1065 84.6417 29.6774 85.1577 30.3301 85.5529V83.6658C30.3301 65.3189 30.3301 46.9719 30.3301 28.5725C30.1469 25.8268 30.7093 23.0826 31.9581 20.6288C33.2069 18.175 35.0959 16.1023 37.4264 14.6288C39.7162 13.0276 42.4173 12.1127 45.2114 11.992C48.0054 11.8713 50.7758 12.5497 53.1959 13.9474C55.7936 15.299 57.9473 17.3662 59.401 19.9031C60.8547 22.4401 61.5472 25.34 61.3961 28.258V55.6211C64.1369 54.5829 67.1137 54.3273 69.9921 54.8829C72.8706 55.4385 75.5368 56.7833 77.6912 58.7664C79.861 56.7724 82.5482 55.4255 85.4474 54.8788C88.3466 54.3321 91.3414 54.6075 94.0915 55.6736V53.7865C94.0915 49.1211 94.0915 44.4557 94.0915 39.7904C94.3314 35.9424 96.0285 32.329 98.8392 29.6818C101.65 27.0346 105.364 25.5513 109.23 25.5321C113.067 25.4238 116.807 26.7432 119.722 29.2334C122.637 31.7237 124.518 35.2066 125 39.004C125 40.3145 125 41.5727 125 42.8832C125 66.3673 125 90.061 125 113.283C125.308 124.577 121.582 135.612 114.487 144.42C112.946 146.165 111.774 148.201 111.043 150.408C110.311 152.615 110.034 154.947 110.229 157.263C110.597 163.868 110.229 170.473 110.229 177.078L37.5841 176.921ZM77.7438 99.3918L76.2194 100.545C74.5415 101.824 72.6081 102.728 70.5498 103.199C68.4914 103.669 66.3558 103.694 64.2871 103.271C60.6522 102.557 57.3852 100.59 55.0592 97.7146C52.7332 94.8391 51.4966 91.2387 51.5664 87.5449C51.5664 67.9923 51.5664 48.4396 51.5664 28.9394C51.5664 28.2056 51.5664 27.5241 51.5664 26.8426C51.5648 26.0466 51.3965 25.2597 51.0721 24.5324C50.7478 23.8051 50.2747 23.1533 49.683 22.619C49.0914 22.0846 48.3943 21.6794 47.6365 21.4294C46.8787 21.1794 46.0769 21.09 45.2824 21.167C44.4879 21.2441 43.7184 21.4858 43.023 21.8767C42.3277 22.2676 41.7219 22.7991 41.2446 23.4371C40.7673 24.0751 40.4289 24.8055 40.2511 25.5815C40.0734 26.3576 40.0601 27.162 40.2123 27.9435V113.388L39.2662 112.392L28.7532 99.2869C26.1775 96.0893 23.4967 92.8917 20.9736 89.7989C20.14 88.7964 19.0057 88.0873 17.7377 87.7758C16.4696 87.4644 15.1348 87.5672 13.9298 88.0691C12.7039 88.4866 11.6541 89.3027 10.9487 90.3863C10.2434 91.4699 9.92339 92.7583 10.04 94.0449C10.2083 95.5764 10.7695 97.0388 11.6695 98.2909C23.2338 114.017 34.8507 129.743 46.5202 145.469C47.2966 146.433 47.7062 147.64 47.6766 148.876C47.6766 154.485 47.6766 160.146 47.6766 165.755C47.6766 166.332 47.6766 166.909 47.6766 167.433H101.083V156.267C100.736 153.176 100.842 150.05 101.398 146.989C102.76 144.287 104.533 141.811 106.655 139.65L107.233 138.864C112.813 131.753 115.765 122.94 115.591 113.912C115.591 90.0611 115.591 66.21 115.591 42.3589V40.5767C115.396 39.1291 114.652 37.8111 113.513 36.8932C112.373 35.9754 110.925 35.5276 109.465 35.6417C108.004 35.7557 106.644 36.4231 105.662 37.5066C104.679 38.5902 104.151 40.0076 104.184 41.4678C104.184 57.1938 104.184 72.6052 104.184 88.1739C104.138 91.1892 103.223 94.1276 101.55 96.6391C99.8757 99.1505 97.513 101.129 94.7431 102.339C91.9732 103.549 88.9129 103.939 85.9269 103.463C82.9409 102.987 80.1551 101.665 77.9015 99.6539L77.7438 99.3918ZM82.5272 79.0005C82.5272 81.8311 82.5272 84.6618 82.5272 87.5449C82.5272 89.0603 83.1309 90.5136 84.2054 91.5851C85.2799 92.6567 86.7372 93.2587 88.2568 93.2587C89.7763 93.2587 91.2337 92.6567 92.3082 91.5851C93.3827 90.5136 93.9864 89.0603 93.9864 87.5449C93.9864 81.8312 93.9864 76.0649 93.9864 70.3511C93.9726 69.2676 93.7402 68.198 93.303 67.206C92.755 66.123 91.8696 65.2465 90.7797 64.7078C89.6898 64.1691 88.4542 63.9972 87.2581 64.218C85.9174 64.4545 84.7049 65.1595 83.838 66.2065C82.9711 67.2535 82.5064 68.5742 82.5272 69.9318C82.4746 72.7625 82.5272 75.9601 82.5272 79.0005ZM61.5012 79.0005C61.5012 81.7787 61.5012 84.6093 61.5012 87.3876C61.4641 88.2934 61.5887 89.1987 61.8692 90.0611C62.2997 91.3205 63.1651 92.3864 64.311 93.0681C65.4569 93.7499 66.8085 94.0032 68.1244 93.7828C69.4839 93.5562 70.7159 92.8485 71.5945 91.7894C72.473 90.7303 72.9393 89.3909 72.9078 88.0167C72.9078 82.1456 72.9078 76.327 72.9078 70.456C72.9576 69.6634 72.8458 68.8691 72.5789 68.1209C72.3121 67.3727 71.8958 66.6863 71.3553 66.1031C70.8147 65.52 70.1612 65.0523 69.4342 64.7282C68.7072 64.4042 67.9219 64.2306 67.1257 64.218C66.348 64.2309 65.5808 64.4003 64.8702 64.7158C64.1597 65.0313 63.5203 65.4865 62.9902 66.0543C62.4602 66.622 62.0505 67.2904 61.7856 68.0198C61.5207 68.7491 61.4061 69.5242 61.4486 70.2987C61.3435 73.1818 61.3961 76.0649 61.3961 78.948L61.5012 79.0005Z" fill="#CE2135"/>
<path d="M229.131 93.4159H216.621V172.36H231.97V176.816H155.12V172.36H170.469V16.3063H155.12V11.7982H226.555C241.171 11.3211 255.796 12.393 270.184 14.9958C276.7 16.2009 282.871 18.813 288.267 22.6491C295.836 28.7647 299.621 38.5148 299.621 51.8994C299.621 65.2664 296.309 74.8593 289.686 80.5731C280.961 87.1765 270.36 90.8474 259.409 91.057V91.7384C272.164 93.4508 281.083 97.2251 286.164 103.061C291.246 108.897 293.769 118.647 293.734 132.311V144.84C293.475 150.377 293.917 155.925 295.048 161.352C295.283 162.564 295.939 163.654 296.9 164.43C297.862 165.207 299.067 165.621 300.304 165.598C301.677 165.606 303.028 165.251 304.219 164.57C305.41 163.888 306.399 162.905 307.085 161.719C309.487 156.532 311.032 150.991 311.658 145.312L315.706 145.783C313.954 159.168 310.922 168.132 306.612 172.675C302.302 177.218 293.663 179.489 280.697 179.489C267.766 179.489 258.568 176.501 253.153 170.421C247.739 164.34 244.953 153.017 244.953 136.348V118.892C245.397 112.264 244.224 105.627 241.536 99.549C240.242 97.4809 238.396 95.8122 236.205 94.7292C234.015 93.6462 231.566 93.1916 229.131 93.4159ZM216.621 16.3063V88.9602H224.19C227.939 89.2504 231.703 88.6512 235.175 87.2116C238.647 85.772 241.727 83.533 244.165 80.6778C248.51 75.1912 250.683 66.2275 250.683 53.7865V46.9719C250.683 34.5484 248.58 26.3184 244.428 22.3345C238.78 17.8267 231.606 15.6672 224.4 16.3063H216.621Z" fill="white"/>
<path d="M337.941 164.183C327.848 154.118 322.802 139.703 322.802 120.936C322.802 102.17 328.216 87.7022 339.045 77.5327C349.838 67.3632 365.012 62.2785 384.566 62.2785C404.12 62.2785 418.681 66.9962 428.3 76.327C437.92 85.6577 442.756 99.9684 442.756 119.154C442.756 159.238 422.728 179.28 382.674 179.28C362.979 179.28 348.068 174.247 337.941 164.183ZM397.339 130.477V110.4C397.672 99.2316 396.844 88.0591 394.869 77.0609C393.187 70.0716 389.349 66.577 383.357 66.577C380.284 66.4301 377.279 67.5046 374.999 69.5648C372.476 72.2545 370.858 75.6635 370.374 79.3149C368.677 90.009 367.956 100.834 368.218 111.658V130.057C367.763 140.376 368.291 150.714 369.795 160.933C370.59 163.852 371.646 166.694 372.949 169.425C373.858 171.301 375.325 172.851 377.15 173.864C378.975 174.877 381.069 175.304 383.147 175.086C386.092 175.11 388.944 174.056 391.162 172.124C393.38 170.192 394.811 167.516 395.184 164.602C397.108 153.317 397.83 141.861 397.339 130.424V130.477Z" fill="white"/>
<path d="M515.611 66.5245C512.235 66.5694 508.962 67.6938 506.275 69.732C503.588 71.7702 501.627 74.6148 500.682 77.8472C497.07 90.015 495.559 102.707 496.214 115.38V127.646C496.214 143.232 497.966 154.398 501.471 161.142C503.3 164.526 506.094 167.292 509.5 169.093C512.905 170.894 516.769 171.647 520.604 171.259C524.781 171.437 528.945 170.682 532.792 169.05C536.639 167.417 540.072 164.949 542.839 161.824C548.203 155.743 551.833 148.339 553.352 140.384L557.61 140.856C555.839 152.289 549.953 162.687 541.052 170.106C531.066 176.747 519.184 179.967 507.2 179.28C488.908 179.28 474.873 174.405 465.148 164.55C455.424 154.695 450.483 140.332 450.483 121.408C450.483 102.485 456.054 87.8593 467.198 77.6375C478.342 67.4156 493.796 62.2785 513.666 62.2785C524.987 61.5416 536.25 64.4047 545.836 70.456C549.238 72.6683 552.033 75.6913 553.97 79.2515C555.906 82.8117 556.922 86.797 556.927 90.8473C557.514 97.2713 555.635 103.678 551.67 108.775C549.791 110.748 547.51 112.298 544.98 113.319C542.451 114.341 539.731 114.811 537.005 114.698C531.547 114.96 526.187 113.185 521.971 109.718C520.003 107.848 518.473 105.568 517.492 103.039C516.51 100.511 516.101 97.7976 516.294 95.0933C516.306 92.2208 516.713 89.3636 517.503 86.6013H525.283C526.311 83.8832 526.88 81.0134 526.965 78.1093C527.23 76.5518 527.123 74.9536 526.65 73.4456C526.178 71.9376 525.354 70.5624 524.247 69.4325C523.14 68.3027 521.78 67.4502 520.279 66.9448C518.778 66.4394 517.178 66.2953 515.611 66.5245Z" fill="white"/>
<path d="M638.613 176.921V172.675H649.494L622.738 117.948L618.27 119.154V172.675H629.151V176.921H561.237V172.675H574.273V4.24967H560.291V0.00367737H618.113V114.698L621.897 113.283L675.093 69.1455H652.858V64.8995H699.483V69.1455H682.925L654.75 92.9965L695.751 172.675H704.267V176.921H638.613Z" fill="white"/>
<path d="M759.933 121.513H766.819V103.323C767.285 93.2469 766.455 83.1526 764.348 73.2867C763.896 71.0862 762.687 69.1123 760.931 67.7055C759.175 66.2987 756.981 65.5473 754.729 65.581C752.004 65.5616 749.334 66.3457 747.055 67.835C746 68.4729 745.129 69.374 744.53 70.4496C743.931 71.5251 743.624 72.7378 743.638 73.9681C743.653 76.6681 744.133 79.3455 745.057 81.8836H750.944C752.29 85.7036 752.931 89.735 752.837 93.7828C752.83 96.1049 752.296 98.3954 751.277 100.483C750.257 102.571 748.778 104.402 746.949 105.839C742.786 109.353 737.473 111.219 732.021 111.081C718.459 111.081 711.678 104.564 711.678 91.5288C711.678 72.2033 728.166 62.5231 761.142 62.4881C779.908 62.4881 792.681 65.6858 800.04 72.081C807.399 78.4762 810.816 90.1135 810.816 107.098V154.957C810.816 163.134 813.076 167.223 817.649 167.223C822.223 167.223 826.165 159.15 827.111 142.953H830.686C830.055 156.931 827.444 166.454 822.853 171.522C818.28 176.763 810.816 179.28 800.408 179.28C781.485 179.28 770.604 173.461 767.765 161.824C766.199 167.111 762.952 171.747 758.514 175.034C753.081 178.207 746.82 179.686 740.536 179.28C717.198 179.28 705.528 169.774 705.528 150.763C705.112 146.018 706.177 141.26 708.576 137.141C710.976 133.021 714.593 129.742 718.932 127.751C727.833 123.592 741.5 121.513 759.933 121.513ZM751.785 166.332C752.094 167.396 752.757 168.324 753.664 168.962C754.572 169.6 755.67 169.912 756.779 169.844C759.197 169.844 761.51 167.852 763.613 163.868C766.004 158.648 767.103 152.931 766.819 147.199V125.182H765.137C755.36 125.182 750.471 132.329 750.471 146.622V150.396C750.189 155.743 750.631 161.103 751.785 166.332V166.332Z" fill="white"/>
<path d="M833.051 64.6373H890.242V86.3392C895.463 70.2987 906.94 62.2784 924.672 62.2784C942.404 62.2784 953.162 70.7705 956.947 87.7545C958.83 80.1124 963.347 73.3735 969.708 68.7165C976.069 64.0594 983.869 61.7806 991.745 62.2784C1014.94 62.2784 1026.53 75.4184 1026.49 101.698V172.675H1039.74V176.921H974.031V172.675H982.283V96.0369C982.283 84.0851 981.284 77.0609 979.234 75.0689C978.728 74.5956 978.134 74.2269 977.484 73.984C976.834 73.7411 976.143 73.6287 975.45 73.6536C970.877 73.6536 966.829 76.7463 963.36 82.8794C959.628 90.076 957.818 98.1096 958.103 106.206V172.727H966.619V176.973H906.011V172.727H914.264V96.0369C914.264 84.0851 913.265 77.0609 911.215 75.0689C910.709 74.5956 910.114 74.2269 909.465 73.984C908.815 73.7411 908.124 73.6287 907.431 73.6536C903.015 73.6536 899.02 77.0084 895.446 83.7182C891.758 91.1369 889.953 99.3449 890.189 107.622V172.727H898.705V176.973H833.051V172.727H846.035V68.9358H833.051V64.6373Z" fill="white"/>
<path d="M1100.08 0.00367737V82.565C1102.43 76.3941 1106.66 71.1147 1112.17 67.4739C1117.69 63.8332 1124.22 62.0157 1130.83 62.2785C1160.34 62.2785 1175.09 81.8661 1175.09 121.041C1175.09 141.013 1170.99 155.691 1162.9 165.126C1154.8 174.562 1142.61 179.28 1126.36 179.28C1119.87 179.653 1113.39 178.353 1107.55 175.505C1105.29 174.135 1103.35 172.323 1101.82 170.178C1100.29 168.033 1099.22 165.601 1098.66 163.03L1097.03 176.921H1043.1V172.675H1056.08V4.24968H1043.1V0.00367737H1100.08ZM1127.05 80.8351C1125.47 75.2262 1122.42 72.448 1117.85 72.448C1115.24 72.6797 1112.73 73.5842 1110.57 75.0729C1108.42 76.5615 1106.69 78.5833 1105.55 80.94C1101.62 88.0644 1099.8 96.1521 1100.29 104.267V148.142C1100.1 154.159 1101.53 160.116 1104.44 165.388C1105.56 167.541 1107.26 169.337 1109.35 170.57C1111.44 171.803 1113.84 172.424 1116.27 172.36C1121.53 172.36 1124.89 168.901 1126.78 161.876C1129.13 149.917 1130.09 137.727 1129.62 125.549V113.283C1129.99 102.405 1129.13 91.52 1127.05 80.8351Z" fill="white"/>
<path d="M1238.96 121.513H1245.79V103.323C1246.26 93.2469 1245.43 83.1526 1243.32 73.2867C1242.88 71.0905 1241.68 69.1176 1239.93 67.7102C1238.19 66.3028 1236 65.5495 1233.75 65.581C1231.01 65.5698 1228.33 66.3528 1226.03 67.835C1224.97 68.4729 1224.1 69.374 1223.5 70.4496C1222.9 71.5251 1222.6 72.7378 1222.61 73.9681C1222.63 76.6681 1223.11 79.3455 1224.03 81.8835H1229.97C1231.33 85.6838 1231.99 89.697 1231.91 93.7304C1231.88 96.0528 1231.33 98.3383 1230.3 100.423C1229.27 102.508 1227.8 104.34 1225.97 105.787C1221.83 109.302 1216.54 111.169 1211.1 111.029C1197.54 111.029 1190.76 104.511 1190.76 91.4764C1190.76 72.1509 1207.23 62.4707 1240.17 62.4357C1258.92 62.4357 1271.88 65.6334 1279.07 72.0286C1286.25 78.4238 1289.84 90.0959 1289.84 107.045V154.904C1289.84 163.082 1292.15 167.171 1296.73 167.171C1301.3 167.171 1305.24 159.098 1306.19 142.9H1309.71C1309.08 156.879 1306.49 166.402 1301.93 171.469C1297.36 176.711 1289.84 179.227 1279.43 179.227C1260.51 179.227 1249.63 173.409 1246.79 161.771C1245.24 167.053 1242.01 171.689 1237.59 174.981C1232.16 178.154 1225.9 179.633 1219.61 179.227C1196.28 179.227 1184.61 169.722 1184.61 150.711C1184.19 145.971 1185.24 141.218 1187.63 137.099C1190.02 132.981 1193.63 129.698 1197.96 127.698C1206.79 123.61 1220.51 121.513 1238.96 121.513ZM1230.76 166.332C1231.07 167.444 1231.78 168.407 1232.74 169.05C1233.7 169.694 1234.86 169.975 1236.01 169.844C1238.43 169.844 1240.75 167.852 1242.85 163.868C1245.24 158.648 1246.34 152.931 1246.05 147.199V125.182H1244.42C1234.65 125.182 1229.76 132.329 1229.76 146.622V150.396C1229.38 155.729 1229.72 161.088 1230.76 166.332V166.332Z" fill="white"/>
</g>
<circle cx="1347.06" cy="164.34" r="14.9397" fill="white"/>
<path d="M848.675 229.125V242.25H866.3V250.575H848.675V264.45H868.55V273H838.175V220.575H868.55V229.125H848.675ZM893.992 273.675C890.592 273.675 887.542 273.075 884.842 271.875C882.142 270.625 879.992 268.95 878.392 266.85C876.842 264.75 875.992 262.425 875.842 259.875H886.417C886.617 261.475 887.392 262.8 888.742 263.85C890.142 264.9 891.867 265.425 893.917 265.425C895.917 265.425 897.467 265.025 898.567 264.225C899.717 263.425 900.292 262.4 900.292 261.15C900.292 259.8 899.592 258.8 898.192 258.15C896.842 257.45 894.667 256.7 891.667 255.9C888.567 255.15 886.017 254.375 884.017 253.575C882.067 252.775 880.367 251.55 878.917 249.9C877.517 248.25 876.817 246.025 876.817 243.225C876.817 240.925 877.467 238.825 878.767 236.925C880.117 235.025 882.017 233.525 884.467 232.425C886.967 231.325 889.892 230.775 893.242 230.775C898.192 230.775 902.142 232.025 905.092 234.525C908.042 236.975 909.667 240.3 909.967 244.5H899.917C899.767 242.85 899.067 241.55 897.817 240.6C896.617 239.6 894.992 239.1 892.942 239.1C891.042 239.1 889.567 239.45 888.517 240.15C887.517 240.85 887.017 241.825 887.017 243.075C887.017 244.475 887.717 245.55 889.117 246.3C890.517 247 892.692 247.725 895.642 248.475C898.642 249.225 901.117 250 903.067 250.8C905.017 251.6 906.692 252.85 908.092 254.55C909.542 256.2 910.292 258.4 910.342 261.15C910.342 263.55 909.667 265.7 908.317 267.6C907.017 269.5 905.117 271 902.617 272.1C900.167 273.15 897.292 273.675 893.992 273.675ZM949.057 240.075V260.175C949.057 261.575 949.382 262.6 950.032 263.25C950.732 263.85 951.882 264.15 953.482 264.15H958.357V273H951.757C942.907 273 938.482 268.7 938.482 260.1V240.075H933.532V231.45H938.482V221.175H949.057V231.45H958.357V240.075H949.057ZM1005.13 231.45V273H994.559V267.75C993.209 269.55 991.434 270.975 989.234 272.025C987.084 273.025 984.734 273.525 982.184 273.525C978.934 273.525 976.059 272.85 973.559 271.5C971.059 270.1 969.084 268.075 967.634 265.425C966.234 262.725 965.534 259.525 965.534 255.825V231.45H976.034V254.325C976.034 257.625 976.859 260.175 978.509 261.975C980.159 263.725 982.409 264.6 985.259 264.6C988.159 264.6 990.434 263.725 992.084 261.975C993.734 260.175 994.559 257.625 994.559 254.325V231.45H1005.13ZM1084.97 230.85C1090.07 230.85 1094.17 232.425 1097.27 235.575C1100.42 238.675 1101.99 243.025 1101.99 248.625V273H1091.49V250.05C1091.49 246.8 1090.67 244.325 1089.02 242.625C1087.37 240.875 1085.12 240 1082.27 240C1079.42 240 1077.14 240.875 1075.44 242.625C1073.79 244.325 1072.97 246.8 1072.97 250.05V273H1062.47V250.05C1062.47 246.8 1061.64 244.325 1059.99 242.625C1058.34 240.875 1056.09 240 1053.24 240C1050.34 240 1048.04 240.875 1046.34 242.625C1044.69 244.325 1043.87 246.8 1043.87 250.05V273H1033.37V231.45H1043.87V236.475C1045.22 234.725 1046.94 233.35 1049.04 232.35C1051.19 231.35 1053.54 230.85 1056.09 230.85C1059.34 230.85 1062.24 231.55 1064.79 232.95C1067.34 234.3 1069.32 236.25 1070.72 238.8C1072.07 236.4 1074.02 234.475 1076.57 233.025C1079.17 231.575 1081.97 230.85 1084.97 230.85ZM1130.4 273.675C1126.4 273.675 1122.8 272.8 1119.6 271.05C1116.4 269.25 1113.88 266.725 1112.03 263.475C1110.23 260.225 1109.33 256.475 1109.33 252.225C1109.33 247.975 1110.25 244.225 1112.1 240.975C1114 237.725 1116.58 235.225 1119.83 233.475C1123.08 231.675 1126.7 230.775 1130.7 230.775C1134.7 230.775 1138.33 231.675 1141.58 233.475C1144.83 235.225 1147.38 237.725 1149.23 240.975C1151.13 244.225 1152.08 247.975 1152.08 252.225C1152.08 256.475 1151.1 260.225 1149.15 263.475C1147.25 266.725 1144.65 269.25 1141.35 271.05C1138.1 272.8 1134.45 273.675 1130.4 273.675ZM1130.4 264.525C1132.3 264.525 1134.08 264.075 1135.73 263.175C1137.43 262.225 1138.78 260.825 1139.78 258.975C1140.78 257.125 1141.28 254.875 1141.28 252.225C1141.28 248.275 1140.23 245.25 1138.13 243.15C1136.08 241 1133.55 239.925 1130.55 239.925C1127.55 239.925 1125.03 241 1122.98 243.15C1120.98 245.25 1119.98 248.275 1119.98 252.225C1119.98 256.175 1120.95 259.225 1122.9 261.375C1124.9 263.475 1127.4 264.525 1130.4 264.525ZM1177.11 263.325L1187.61 231.45H1198.78L1183.41 273H1170.66L1155.36 231.45H1166.61L1177.11 263.325ZM1210 226.5C1208.15 226.5 1206.6 225.925 1205.35 224.775C1204.15 223.575 1203.55 222.1 1203.55 220.35C1203.55 218.6 1204.15 217.15 1205.35 216C1206.6 214.8 1208.15 214.2 1210 214.2C1211.85 214.2 1213.38 214.8 1214.58 216C1215.83 217.15 1216.45 218.6 1216.45 220.35C1216.45 222.1 1215.83 223.575 1214.58 224.775C1213.38 225.925 1211.85 226.5 1210 226.5ZM1215.18 231.45V273H1204.68V231.45H1215.18ZM1222.85 252.075C1222.85 247.875 1223.68 244.15 1225.33 240.9C1227.03 237.65 1229.33 235.15 1232.23 233.4C1235.13 231.65 1238.35 230.775 1241.9 230.775C1244.6 230.775 1247.18 231.375 1249.63 232.575C1252.08 233.725 1254.03 235.275 1255.48 237.225V217.5H1266.13V273H1255.48V266.85C1254.18 268.9 1252.35 270.55 1250 271.8C1247.65 273.05 1244.93 273.675 1241.83 273.675C1238.33 273.675 1235.13 272.775 1232.23 270.975C1229.33 269.175 1227.03 266.65 1225.33 263.4C1223.68 260.1 1222.85 256.325 1222.85 252.075ZM1255.55 252.225C1255.55 249.675 1255.05 247.5 1254.05 245.7C1253.05 243.85 1251.7 242.45 1250 241.5C1248.3 240.5 1246.48 240 1244.53 240C1242.58 240 1240.78 240.475 1239.13 241.425C1237.48 242.375 1236.13 243.775 1235.08 245.625C1234.08 247.425 1233.58 249.575 1233.58 252.075C1233.58 254.575 1234.08 256.775 1235.08 258.675C1236.13 260.525 1237.48 261.95 1239.13 262.95C1240.83 263.95 1242.63 264.45 1244.53 264.45C1246.48 264.45 1248.3 263.975 1250 263.025C1251.7 262.025 1253.05 260.625 1254.05 258.825C1255.05 256.975 1255.55 254.775 1255.55 252.225ZM1273.68 252.075C1273.68 247.875 1274.51 244.15 1276.16 240.9C1277.86 237.65 1280.13 235.15 1282.98 233.4C1285.88 231.65 1289.11 230.775 1292.66 230.775C1295.76 230.775 1298.46 231.4 1300.76 232.65C1303.11 233.9 1304.98 235.475 1306.38 237.375V231.45H1316.96V273H1306.38V266.925C1305.03 268.875 1303.16 270.5 1300.76 271.8C1298.41 273.05 1295.68 273.675 1292.58 273.675C1289.08 273.675 1285.88 272.775 1282.98 270.975C1280.13 269.175 1277.86 266.65 1276.16 263.4C1274.51 260.1 1273.68 256.325 1273.68 252.075ZM1306.38 252.225C1306.38 249.675 1305.88 247.5 1304.88 245.7C1303.88 243.85 1302.53 242.45 1300.83 241.5C1299.13 240.5 1297.31 240 1295.36 240C1293.41 240 1291.61 240.475 1289.96 241.425C1288.31 242.375 1286.96 243.775 1285.91 245.625C1284.91 247.425 1284.41 249.575 1284.41 252.075C1284.41 254.575 1284.91 256.775 1285.91 258.675C1286.96 260.525 1288.31 261.95 1289.96 262.95C1291.66 263.95 1293.46 264.45 1295.36 264.45C1297.31 264.45 1299.13 263.975 1300.83 263.025C1302.53 262.025 1303.88 260.625 1304.88 258.825C1305.88 256.975 1306.38 254.775 1306.38 252.225Z" fill="#D63447"/>
<defs>
<clipPath id="clip0_1106_415">
<rect width="1309.71" height="179.276" fill="white" transform="translate(0.00012207 0.00366211)"/>
</clipPath>
</defs>
</svg>
